<svg width="18" height="16" viewBox="0 0 18 16" fill="none" xmlns="http://www.w3.org/2000/svg">
<g id="Filter">
<path id="Filter_2" fill-rule="evenodd" clip-rule="evenodd" d="M6.39811 3.31547C6.39811 4.87102 5.11571 6.13184 3.53238 6.13184C1.94998 6.13184 0.666656 4.87102 0.666656 3.31547C0.666656 1.76082 1.94998 0.5 3.53238 0.5C5.11571 0.5 6.39811 1.76082 6.39811 3.31547ZM16.0778 2.08194C16.7704 2.08194 17.3333 2.63502 17.3333 3.31547C17.3333 3.99682 16.7704 4.54991 16.0778 4.54991H10.5982C9.90466 4.54991 9.3417 3.99682 9.3417 3.31547C9.3417 2.63502 9.90466 2.08194 10.5982 2.08194H16.0778ZM1.92313 11.2983H7.40273C8.09624 11.2983 8.6592 11.8514 8.6592 12.5327C8.6592 13.2132 8.09624 13.7672 7.40273 13.7672H1.92313C1.22962 13.7672 0.666656 13.2132 0.666656 12.5327C0.666656 11.8514 1.22962 11.2983 1.92313 11.2983ZM14.4676 15.3148C16.0509 15.3148 17.3333 14.054 17.3333 12.4993C17.3333 10.9438 16.0509 9.68297 14.4676 9.68297C12.8852 9.68297 11.6019 10.9438 11.6019 12.4993C11.6019 14.054 12.8852 15.3148 14.4676 15.3148Z" fill="#353535"/>
</g>
</svg>
