<svg width="26" height="26" viewBox="0 0 26 26" fill="none" xmlns="http://www.w3.org/2000/svg">
<g id="hot 1">
<path id="Vector" d="M19.8143 8.21605C18.8003 9.88005 18.9043 11.7 18.9303 12.064C15.2903 7.17605 14.1983 3.95205 14.6923 1.30005C11.9103 2.39205 8.92033 6.57805 8.53033 9.95805C7.15233 8.89205 7.67233 6.37005 8.08833 5.72005C4.05833 9.75005 2.83633 14.586 3.59033 17.42C4.37033 20.254 6.42433 22.958 9.46633 24.7H10.0643C9.96033 24.544 9.88233 24.362 9.83033 24.206C8.86833 21.294 11.4423 20.436 11.4423 19.188C12.1963 19.656 12.1703 20.202 11.8843 20.982C12.7943 20.41 13.4443 18.616 13.0803 17.42C14.8223 18.278 15.3683 20.8 15.5243 21.58C15.6023 20.904 15.6023 20.254 16.6163 19.864C16.3823 20.93 18.2283 22.152 17.8643 23.686C17.7863 24.024 17.6563 24.3361 17.5003 24.622C20.8023 22.672 22.9603 20.072 22.5703 16.77C22.1803 13.39 19.5283 10.088 19.8143 8.21605Z" fill="#F12525"/>
</g>
</svg>
