<svg width="18" height="18" viewBox="0 0 18 18" fill="none" xmlns="http://www.w3.org/2000/svg">
<g id="L / whatsapp-l">
<path id="Vector" d="M14.6004 3.4234C13.1413 1.93354 11.1242 1.12476 9.06428 1.12476C4.6869 1.12476 1.16782 4.65786 1.21074 8.95719C1.21074 10.3194 1.59698 11.6389 2.24071 12.8308L1.12491 16.8748L5.28772 15.8106C6.44643 16.4491 7.7339 16.7471 9.02137 16.7471C13.3558 16.7471 16.8749 13.2139 16.8749 8.91462C16.8749 6.82881 16.0595 4.8707 14.6004 3.4234ZM9.06428 15.4275C7.90556 15.4275 6.74684 15.1295 5.75979 14.5335L5.50229 14.4058L3.01319 15.0444L3.65693 12.618L3.48526 12.3626C1.59698 9.3403 2.49821 5.33895 5.58812 3.46597C8.67804 1.593 12.6692 2.48692 14.5575 5.55178C16.4458 8.61665 15.5445 12.5754 12.4546 14.4484C11.4676 15.0869 10.2659 15.4275 9.06428 15.4275ZM12.8408 10.7025L12.3688 10.4896C12.3688 10.4896 11.6821 10.1916 11.253 9.97881C11.2101 9.97881 11.1671 9.93624 11.1242 9.93624C10.9955 9.93624 10.9096 9.97881 10.8238 10.0214C10.8238 10.0214 10.7809 10.0639 10.1801 10.745C10.1372 10.8302 10.0513 10.8727 9.96551 10.8727H9.92259C9.87968 10.8727 9.79385 10.8302 9.75093 10.7876L9.53635 10.7025C9.06428 10.4896 8.63513 10.2342 8.2918 9.89368C8.20597 9.80854 8.07722 9.72341 7.99139 9.63827C7.69098 9.3403 7.39058 8.99976 7.176 8.61665L7.13308 8.53151C7.09017 8.48895 7.09017 8.44638 7.04725 8.36124C7.04725 8.27611 7.04725 8.19097 7.09017 8.1484C7.09017 8.1484 7.26183 7.93557 7.39058 7.80786C7.47641 7.72273 7.51932 7.59503 7.60515 7.50989C7.69098 7.38219 7.7339 7.21192 7.69098 7.08422C7.64807 6.87138 7.13308 5.72205 7.00434 5.46665C6.91851 5.33895 6.83267 5.29638 6.70393 5.25381H6.57518C6.48935 5.25381 6.3606 5.25381 6.23186 5.25381C6.14603 5.25381 6.06019 5.29638 5.97436 5.29638L5.93145 5.33895C5.84562 5.38151 5.75979 5.46665 5.67396 5.50922C5.58812 5.59435 5.54521 5.67949 5.45938 5.76462C5.15897 6.14773 4.98731 6.61597 4.98731 7.08422C4.98731 7.42476 5.07314 7.7653 5.20188 8.06327L5.2448 8.19097C5.63104 8.99976 6.14603 9.72341 6.83267 10.3619L7.00434 10.5322C7.13308 10.6599 7.26183 10.745 7.34766 10.8727C8.24889 11.6389 9.27886 12.1923 10.4376 12.4903C10.5663 12.5329 10.738 12.5329 10.8667 12.5754C10.9955 12.5754 11.1671 12.5754 11.2959 12.5754C11.5105 12.5754 11.768 12.4903 11.9396 12.4052C12.0684 12.32 12.1542 12.32 12.24 12.2349L12.3259 12.1498C12.4117 12.0646 12.4975 12.0221 12.5834 11.9369C12.6692 11.8518 12.755 11.7666 12.7979 11.6815C12.8838 11.5112 12.9267 11.2984 12.9696 11.0856C12.9696 11.0004 12.9696 10.8727 12.9696 10.7876C12.9696 10.7876 12.9267 10.745 12.8408 10.7025Z" fill="white"/>
</g>
</svg>
