<svg width="102" height="26" viewBox="0 0 102 26" fill="none" xmlns="http://www.w3.org/2000/svg">
<path id="Arrow 1" d="M1.50066 4.47433C1.51484 4.19855 1.7499 3.98648 2.02568 4.00066L6.51974 4.23173C6.79552 4.24591 7.00758 4.48097 6.9934 4.75674C6.97923 5.03252 6.74417 5.24459 6.46839 5.23041L2.47367 5.02501L2.26828 9.01974C2.25409 9.29552 2.01904 9.50758 1.74326 9.4934C1.46748 9.47922 1.25541 9.24417 1.26959 8.96839L1.50066 4.47433ZM100.261 2.80465C100.088 3.02002 99.7731 3.05452 99.5578 2.8817C99.3424 2.70888 99.3079 2.39419 99.4807 2.17881L100.261 2.80465ZM95.7401 6.33154C95.9351 6.13603 96.2517 6.13561 96.4472 6.33062C96.6427 6.52563 96.6432 6.84221 96.4482 7.03773L95.7401 6.33154ZM93.6935 9.63342C93.4868 9.81657 93.1708 9.79751 92.9877 9.59084C92.8045 9.38417 92.8236 9.06817 93.0303 8.88502L93.6935 9.63342ZM88.6759 12.4056C88.8983 12.2419 89.2113 12.2894 89.375 12.5117C89.5388 12.7341 89.4913 13.0471 89.2689 13.2108L88.6759 12.4056ZM86.151 15.3647C85.9192 15.5147 85.6096 15.4483 85.4597 15.2165C85.3097 14.9846 85.3761 14.675 85.6079 14.5251L86.151 15.3647ZM80.7776 17.3424C81.0224 17.2145 81.3245 17.3092 81.4523 17.554C81.5802 17.7987 81.4855 18.1008 81.2407 18.2287L80.7776 17.3424ZM77.8213 19.8803C77.569 19.9925 77.2735 19.8789 77.1613 19.6266C77.0492 19.3742 77.1628 19.0788 77.4151 18.9666L77.8213 19.8803ZM72.2083 20.9891C72.4702 20.9016 72.7535 21.043 72.841 21.3049C72.9285 21.5668 72.7871 21.8501 72.5252 21.9376L72.2083 20.9891ZM68.8853 23.0248C68.6183 23.0953 68.3448 22.936 68.2743 22.669C68.2038 22.402 68.3631 22.1284 68.6301 22.0579L68.8853 23.0248ZM63.1623 23.2236C63.4348 23.1789 63.6919 23.3637 63.7365 23.6362C63.7812 23.9087 63.5964 24.1658 63.3239 24.2104L63.1623 23.2236ZM59.5719 24.7044C59.2971 24.7319 59.052 24.5315 59.0245 24.2567C58.997 23.9819 59.1975 23.7369 59.4723 23.7094L59.5719 24.7044ZM53.887 24.0111C54.1631 24.0087 54.389 24.2305 54.3914 24.5066C54.3939 24.7828 54.172 25.0086 53.8959 25.0111L53.887 24.0111ZM50.1313 24.9412C49.8554 24.9294 49.6413 24.6962 49.6531 24.4203C49.6649 24.1444 49.8981 23.9303 50.174 23.9421L50.1313 24.9412ZM44.7104 23.5237C44.9849 23.5542 45.1827 23.8013 45.1522 24.0758C45.1217 24.3502 44.8746 24.5481 44.6001 24.5176L44.7104 23.5237ZM40.9377 24.0253C40.6649 23.9822 40.4788 23.7261 40.5219 23.4533C40.5651 23.1806 40.8212 22.9945 41.0939 23.0376L40.9377 24.0253ZM35.7185 21.9916C35.9875 22.054 36.1551 22.3226 36.0927 22.5916C36.0304 22.8606 35.7617 23.0281 35.4927 22.9658L35.7185 21.9916ZM31.9054 22.043C31.6397 21.9677 31.4853 21.6914 31.5605 21.4257C31.6357 21.16 31.9121 21.0055 32.1778 21.0808L31.9054 22.043ZM26.965 19.3981C27.2245 19.4925 27.3584 19.7794 27.264 20.0389C27.1697 20.2984 26.8828 20.4323 26.6233 20.3379L26.965 19.3981ZM23.179 18.9892C22.9244 18.8823 22.8047 18.5892 22.9117 18.3346C23.0186 18.08 23.3117 17.9603 23.5663 18.0673L23.179 18.9892ZM18.6018 15.7616C18.8478 15.8872 18.9454 16.1883 18.8198 16.4343C18.6943 16.6802 18.3931 16.7778 18.1472 16.6523L18.6018 15.7616ZM14.8916 14.8859C14.6523 14.7481 14.57 14.4424 14.7078 14.2031C14.8456 13.9638 15.1513 13.8815 15.3906 14.0193L14.8916 14.8859ZM10.7612 11.1108C10.989 11.2668 11.0473 11.5779 10.8914 11.8058C10.7354 12.0337 10.4242 12.092 10.1963 11.936L10.7612 11.1108ZM7.18842 9.75348C6.96958 9.58506 6.9287 9.27112 7.09712 9.05229C7.26554 8.83345 7.57948 8.79258 7.79831 8.961L7.18842 9.75348ZM3.64044 5.43451C3.84101 5.62431 3.84975 5.94077 3.65994 6.14134C3.47015 6.34192 3.15369 6.35065 2.95311 6.16085L3.64044 5.43451ZM101 1C101.413 1.28123 101.413 1.28126 101.413 1.28129C101.413 1.28131 101.413 1.28134 101.413 1.28137C101.413 1.28142 101.413 1.28149 101.413 1.28156C101.413 1.2817 101.413 1.28188 101.413 1.28209C101.413 1.28251 101.412 1.28307 101.412 1.28376C101.411 1.28514 101.409 1.28706 101.408 1.28951C101.404 1.29441 101.4 1.30144 101.393 1.31055C101.381 1.32877 101.362 1.35533 101.338 1.38989C101.289 1.45901 101.216 1.56014 101.12 1.69063C100.928 1.95161 100.641 2.33005 100.261 2.80465L99.4807 2.17881C99.8524 1.7156 100.131 1.34818 100.315 1.09774C100.407 0.972525 100.476 0.876568 100.521 0.812519C100.544 0.780495 100.561 0.75645 100.571 0.740715C100.577 0.732847 100.581 0.727057 100.583 0.723386C100.585 0.72155 100.586 0.720245 100.586 0.719474C100.586 0.719089 100.587 0.718837 100.587 0.71872C100.587 0.718661 100.587 0.718636 100.587 0.718645C100.587 0.718649 100.587 0.718662 100.587 0.718683C100.587 0.718694 100.587 0.718716 100.587 0.718721C100.587 0.718745 100.587 0.718772 101 1ZM96.4482 7.03773C95.6308 7.85725 94.7125 8.73037 93.6935 9.63342L93.0303 8.88502C94.033 7.99637 94.9364 7.1374 95.7401 6.33154L96.4482 7.03773ZM89.2689 13.2108C88.2889 13.9326 87.2496 14.6541 86.151 15.3647L85.6079 14.5251C86.6888 13.8259 87.7115 13.1159 88.6759 12.4056L89.2689 13.2108ZM81.2407 18.2287C80.1454 18.8009 79.0056 19.3538 77.8213 19.8803L77.4151 18.9666C78.5796 18.4489 79.7004 17.9052 80.7776 17.3424L81.2407 18.2287ZM72.5252 21.9376C71.3478 22.331 70.1344 22.6951 68.8853 23.0248L68.6301 22.0579C69.8581 21.7338 71.0508 21.3759 72.2083 20.9891L72.5252 21.9376ZM63.3239 24.2104C62.1023 24.4104 60.8516 24.5763 59.5719 24.7044L59.4723 23.7094C60.7311 23.5834 61.9611 23.4202 63.1623 23.2236L63.3239 24.2104ZM53.8959 25.0111C53.2667 25.0167 52.6313 25.0131 51.9897 24.9999L52.0103 24.0001C52.642 24.0131 53.2676 24.0166 53.887 24.0111L53.8959 25.0111ZM51.9897 24.9999C51.3647 24.9871 50.7453 24.9674 50.1313 24.9412L50.174 23.9421C50.7806 23.968 51.3927 23.9874 52.0103 24.0001L51.9897 24.9999ZM44.6001 24.5176C43.3534 24.3792 42.1325 24.2143 40.9377 24.0253L41.0939 23.0376C42.2736 23.2242 43.4792 23.3871 44.7104 23.5237L44.6001 24.5176ZM35.4927 22.9658C34.2648 22.6811 33.0689 22.3723 31.9054 22.043L32.1778 21.0808C33.3261 21.4059 34.5065 21.7106 35.7185 21.9916L35.4927 22.9658ZM26.6233 20.3379C25.434 19.9055 24.2858 19.4543 23.179 18.9892L23.5663 18.0673C24.6584 18.5262 25.7914 18.9714 26.965 19.3981L26.6233 20.3379ZM18.1472 16.6523C17.004 16.0687 15.9187 15.4772 14.8916 14.8859L15.3906 14.0193C16.4035 14.6024 17.4741 15.1859 18.6018 15.7616L18.1472 16.6523ZM10.1963 11.936C9.08766 11.1772 8.08463 10.4432 7.18842 9.75348L7.79831 8.961C8.68049 9.63992 9.6685 10.3629 10.7612 11.1108L10.1963 11.936ZM2.95311 6.16085C2.51715 5.74832 2.18806 5.41905 1.96698 5.19183C1.85644 5.07821 1.77288 4.9901 1.71647 4.92984C1.68826 4.89971 1.66683 4.87654 1.65221 4.86062C1.6449 4.85266 1.63929 4.84652 1.63538 4.84223C1.63342 4.84008 1.6319 4.8384 1.63079 4.83718C1.63024 4.83657 1.6298 4.83608 1.62946 4.8357C1.62929 4.83552 1.62915 4.83536 1.62903 4.83523C1.62897 4.83517 1.62892 4.83511 1.62887 4.83506C1.62885 4.83503 1.62882 4.835 1.62881 4.83499C1.62878 4.83496 1.62876 4.83493 2 4.5C2.37124 4.16507 2.37122 4.16504 2.3712 4.16502C2.3712 4.16502 2.37118 4.165 2.37117 4.16499C2.37116 4.16497 2.37114 4.16495 2.37113 4.16495C2.37113 4.16494 2.37114 4.16495 2.37118 4.165C2.37127 4.1651 2.37146 4.16531 2.37176 4.16564C2.37236 4.1663 2.37338 4.16742 2.37483 4.16901C2.37771 4.17218 2.3823 4.1772 2.38857 4.18403C2.40111 4.19768 2.42043 4.21858 2.44649 4.24642C2.49862 4.3021 2.57774 4.38556 2.6837 4.49447C2.89564 4.71229 3.21494 5.03186 3.64044 5.43451L2.95311 6.16085ZM1.00132 4.44865C1.02968 3.89709 1.49979 3.47296 2.05135 3.50132L11.0395 3.96346C11.591 3.99182 12.0152 4.46193 11.9868 5.01349C11.9584 5.56504 11.4883 5.98918 10.9368 5.96082L2.94734 5.55003L2.53654 13.5395C2.50819 14.091 2.03807 14.5152 1.48652 14.4868C0.934959 14.4584 0.510827 13.9883 0.539183 13.4368L1.00132 4.44865ZM100.651 3.11756C100.305 3.54832 99.6756 3.61732 99.2449 3.27168C98.8141 2.92604 98.7451 2.29664 99.0907 1.86589L100.651 3.11756ZM95.3861 5.97845C95.7761 5.58742 96.4093 5.58659 96.8003 5.97661C97.1914 6.36662 97.1922 6.99978 96.8022 7.39082L95.3861 5.97845ZM94.0251 10.0076C93.6118 10.3739 92.9798 10.3358 92.6135 9.92246C92.2472 9.50913 92.2853 8.87711 92.6986 8.51081L94.0251 10.0076ZM88.3795 12.003C88.8242 11.6755 89.4502 11.7705 89.7777 12.2152C90.1051 12.66 90.0101 13.2859 89.5654 13.6134L88.3795 12.003ZM86.4226 15.7845C85.9589 16.0845 85.3398 15.9517 85.0398 15.488C84.7399 15.0243 84.8726 14.4052 85.3363 14.1052L86.4226 15.7845ZM80.5461 16.8992C81.0356 16.6434 81.6397 16.8329 81.8955 17.3224C82.1513 17.8119 81.9618 18.4161 81.4723 18.6718L80.5461 16.8992ZM78.0245 20.3372C77.5198 20.5616 76.9288 20.3344 76.7045 19.8297C76.4801 19.325 76.7073 18.7341 77.212 18.5097L78.0245 20.3372ZM72.0499 20.5149C72.5737 20.3399 73.1402 20.6226 73.3152 21.1464C73.4903 21.6703 73.2075 22.2368 72.6837 22.4118L72.0499 20.5149ZM69.0129 23.5083C68.4789 23.6492 67.9318 23.3306 67.7908 22.7966C67.6499 22.2626 67.9685 21.7154 68.5025 21.5745L69.0129 23.5083ZM63.0815 22.7301C63.6266 22.6409 64.1407 23.0104 64.23 23.5554C64.3192 24.1005 63.9497 24.6146 63.4047 24.7039L63.0815 22.7301ZM59.6216 25.2019C59.0721 25.2569 58.582 24.856 58.527 24.3065C58.472 23.757 58.8729 23.2669 59.4225 23.2119L59.6216 25.2019ZM53.8825 23.5111C54.4348 23.5062 54.8865 23.9499 54.8914 24.5022C54.8963 25.0545 54.4526 25.5061 53.9003 25.5111L53.8825 23.5111ZM50.11 25.4407C49.5582 25.4171 49.13 24.9507 49.1536 24.3989C49.1772 23.8471 49.6436 23.4189 50.1954 23.4425L50.11 25.4407ZM44.7655 23.0267C45.3145 23.0877 45.7101 23.582 45.6491 24.1309C45.5882 24.6799 45.0939 25.0755 44.545 25.0145L44.7655 23.0267ZM40.8596 24.5192C40.3141 24.4329 39.9418 23.9208 40.0281 23.3752C40.1143 22.8297 40.6265 22.4575 41.172 22.5437L40.8596 24.5192ZM35.8314 21.5045C36.3695 21.6292 36.7045 22.1665 36.5798 22.7045C36.4551 23.2425 35.9178 23.5776 35.3798 23.4529L35.8314 21.5045ZM31.7692 22.5241C31.2378 22.3736 30.9289 21.8209 31.0794 21.2895C31.2298 20.7581 31.7825 20.4492 32.3139 20.5997L31.7692 22.5241ZM27.1358 18.9282C27.6549 19.117 27.9227 19.6907 27.7339 20.2097C27.5452 20.7288 26.9714 20.9966 26.4524 20.8078L27.1358 18.9282ZM22.9853 19.4502C22.4761 19.2363 22.2368 18.6501 22.4507 18.1409C22.6646 17.6318 23.2508 17.3924 23.76 17.6063L22.9853 19.4502ZM18.8292 15.3163C19.3211 15.5674 19.5163 16.1697 19.2651 16.6616C19.014 17.1535 18.4117 17.3487 17.9198 17.0976L18.8292 15.3163ZM14.6422 15.3192C14.1635 15.0437 13.9989 14.4323 14.2745 13.9537C14.55 13.475 15.1614 13.3104 15.64 13.586L14.6422 15.3192ZM11.0436 10.6982C11.4993 11.0101 11.6159 11.6325 11.304 12.0882C10.992 12.544 10.3697 12.6606 9.91394 12.3486L11.0436 10.6982ZM6.88347 10.1497C6.44579 9.81288 6.36404 9.18501 6.70088 8.74734C7.03772 8.30966 7.66559 8.22792 8.10326 8.56476L6.88347 10.1497ZM3.9841 5.07133C4.38525 5.45093 4.40272 6.08386 4.02312 6.48501C3.64352 6.88616 3.0106 6.90363 2.60945 6.52403L3.9841 5.07133ZM101 1C101.827 1.56246 101.827 1.56252 101.827 1.56258C101.827 1.5626 101.827 1.56266 101.827 1.56271C101.827 1.5628 101.827 1.5629 101.826 1.56301C101.826 1.56323 101.826 1.56349 101.826 1.56378C101.826 1.56435 101.825 1.56506 101.824 1.56591C101.823 1.56759 101.822 1.56982 101.82 1.57258C101.816 1.57809 101.811 1.58574 101.804 1.59547C101.791 1.61493 101.771 1.64274 101.746 1.67857C101.695 1.75022 101.621 1.85395 101.523 1.98708C101.327 2.25332 101.036 2.63727 100.651 3.11756L99.0907 1.86589C99.4578 1.40837 99.7317 1.04646 99.9123 0.801293C100.002 0.678717 100.069 0.585349 100.113 0.523835C100.135 0.493079 100.151 0.470289 100.161 0.455796C100.166 0.44855 100.169 0.443378 100.171 0.440322C100.172 0.438794 100.173 0.437795 100.173 0.43733C100.173 0.437098 100.174 0.436999 100.174 0.437034C100.174 0.437052 100.173 0.437103 100.173 0.437188C100.173 0.437231 100.173 0.437281 100.173 0.437341C100.173 0.43737 100.173 0.437421 100.173 0.437436C100.173 0.437489 100.173 0.437544 101 1ZM96.8022 7.39082C95.978 8.21717 95.0523 9.09737 94.0251 10.0076L92.6986 8.51081C93.6933 7.62936 94.5892 6.77748 95.3861 5.97845L96.8022 7.39082ZM89.5654 13.6134C88.5776 14.3409 87.53 15.0682 86.4226 15.7845L85.3363 14.1052C86.4084 13.4118 87.4228 12.7076 88.3795 12.003L89.5654 13.6134ZM81.4723 18.6718C80.3679 19.2488 79.2187 19.8063 78.0245 20.3372L77.212 18.5097C78.3665 17.9964 79.4779 17.4573 80.5461 16.8992L81.4723 18.6718ZM72.6837 22.4118C71.4962 22.8086 70.2726 23.1758 69.0129 23.5083L68.5025 21.5745C69.7199 21.2532 70.9023 20.8983 72.0499 20.5149L72.6837 22.4118ZM63.4047 24.7039C62.1729 24.9055 60.9119 25.0728 59.6216 25.2019L59.4225 23.2119C60.6709 23.0869 61.8906 22.9251 63.0815 22.7301L63.4047 24.7039ZM53.9003 25.5111C53.2662 25.5167 52.6259 25.5131 51.9795 25.4998L52.0205 23.5002C52.6474 23.5131 53.268 23.5166 53.8825 23.5111L53.9003 25.5111ZM51.9795 25.4998C51.3508 25.4869 50.7276 25.4671 50.11 25.4407L50.1954 23.4425C50.7983 23.4683 51.4066 23.4876 52.0205 23.5002L51.9795 25.4998ZM44.545 25.0145C43.2905 24.8753 42.062 24.7093 40.8596 24.5192L41.172 22.5437C42.3442 22.7291 43.5421 22.891 44.7655 23.0267L44.545 25.0145ZM35.3798 23.4529C34.144 23.1664 32.9403 22.8556 31.7692 22.5241L32.3139 20.5997C33.4547 20.9226 34.6273 21.2254 35.8314 21.5045L35.3798 23.4529ZM26.4524 20.8078C25.2553 20.3726 24.0995 19.9183 22.9853 19.4502L23.76 17.6063C24.8447 18.0621 25.9701 18.5044 27.1358 18.9282L26.4524 20.8078ZM17.9198 17.0976C16.769 16.5101 15.6762 15.9146 14.6422 15.3192L15.64 13.586C16.646 14.1651 17.7092 14.7445 18.8292 15.3163L17.9198 17.0976ZM9.91394 12.3486C8.79724 11.5843 7.78669 10.8448 6.88347 10.1497L8.10326 8.56476C8.97842 9.23828 9.95891 9.95582 11.0436 10.6982L9.91394 12.3486ZM2.60945 6.52403C2.16826 6.10655 1.83428 5.77243 1.60861 5.5405C1.49578 5.42454 1.41001 5.3341 1.35145 5.27155C1.32217 5.24027 1.2997 5.21596 1.28404 5.19892C1.27621 5.1904 1.27008 5.18369 1.26566 5.17883C1.26344 5.17641 1.26166 5.17444 1.26031 5.17295C1.25963 5.1722 1.25906 5.17157 1.25859 5.17105C1.25836 5.1708 1.25815 5.17057 1.25797 5.17037C1.25789 5.17027 1.2578 5.17018 1.25773 5.1701C1.25769 5.17005 1.25764 5.17 1.25762 5.16997C1.25757 5.16992 1.25752 5.16986 2 4.5C2.74249 3.83013 2.74244 3.83008 2.7424 3.83004C2.74238 3.83002 2.74234 3.82998 2.74231 3.82995C2.74227 3.82989 2.74222 3.82985 2.74219 3.82981C2.74211 3.82973 2.74207 3.82967 2.74205 3.82965C2.74201 3.82961 2.74208 3.82968 2.74225 3.82987C2.74259 3.83025 2.74336 3.83109 2.74455 3.8324C2.74693 3.83501 2.75099 3.83947 2.75675 3.84573C2.76826 3.85826 2.78652 3.87801 2.8115 3.90471C2.86149 3.9581 2.93839 4.03924 3.04206 4.14579C3.24942 4.35891 3.56382 4.67363 3.9841 5.07133L2.60945 6.52403Z" fill="#8B8B8B"/>
</svg>
